<?xml version="1.0" encoding="utf-8"?>
<!-- Generator: Adobe Illustrator 16.0.0, SVG Export Plug-In . SVG Version: 6.00 Build 0)  -->
<!DOCTYPE svg PUBLIC "-//W3C//DTD SVG 1.1//EN" "http://www.w3.org/Graphics/SVG/1.1/DTD/svg11.dtd">
<svg version="1.1" id="Layer_1" xmlns="http://www.w3.org/2000/svg" xmlns:xlink="http://www.w3.org/1999/xlink" x="0px" y="0px"
	 width="415.7px" height="265.3px" viewBox="0 0 415.7 265.3" enable-background="new 0 0 415.7 265.3" xml:space="preserve">
<g>
	<defs>
		<rect id="SVGID_1_" width="415.7" height="265.9"/>
	</defs>
	<clipPath id="SVGID_2_">
		<use xlink:href="#SVGID_1_"  overflow="visible"/>
	</clipPath>
	<path clip-path="url(#SVGID_2_)" d="M400.4,263.2c1.6,1.5,3.7,2.3,6.2,2.3c2.5,0,4.6-0.8,6.3-2.3c1.6-1.5,2.4-3.5,2.4-5.9
		c0-2.4-0.8-4.4-2.5-5.9s-3.7-2.3-6.2-2.3c-2.5,0-4.5,0.8-6.2,2.3s-2.5,3.5-2.5,5.9C398,259.7,398.8,261.7,400.4,263.2 M353.9,187.6
		h-17.5l25.4,49.2v28H378v-28l25.4-49.2H386l-16.1,34.8L353.9,187.6z M328.6,218.9h-30.6v-18.4h35.8v-12.9h-51.7v77.2h51.8v-12.8
		h-35.9v-20.8h30.6V218.9z M239.2,187.6h-15.9v77.2H273v-12.8h-33.8V187.6z M209.4,187.6h-15.9v31.3h-31v-31.3h-15.9v77.2h15.9
		v-33.1h31v33.1h15.9V187.6z M116.5,251c-2.1,1.5-5.1,2.3-8.9,2.3c-10.2,0-15.3-4.3-15.3-12.8h-16c0,5,1.3,9.4,3.8,13.2
		c2.6,3.8,6.3,6.8,11.2,8.9c4.9,2.2,10.3,3.3,16.2,3.3c8.6,0,15.4-1.9,20.4-5.7c5.1-3.8,7.6-9,7.6-15.7c0-6-2.1-11-6.2-15.1
		c-4.1-4-10.7-7.4-19.8-10.1c-4.9-1.5-8.6-3.1-11.2-4.8c-2.5-1.7-3.8-3.8-3.8-6.3c0-2.7,1.1-4.9,3.2-6.5c2.2-1.6,5.2-2.5,9.1-2.5
		c4,0,7.2,1,9.4,2.9c2.2,2,3.3,4.7,3.3,8.2h15.9c0-4.6-1.2-8.8-3.6-12.4c-2.4-3.6-5.7-6.5-10.1-8.5c-4.3-2-9.2-3-14.8-3
		c-5.5,0-10.4,0.9-14.8,2.8c-4.4,1.8-7.8,4.4-10.1,7.7c-2.4,3.3-3.5,7-3.5,11.2c0,8,4.4,14.4,13.2,19.1c3.2,1.7,7.6,3.5,13.1,5.3
		c5.5,1.8,9.3,3.5,11.5,5.1c2.1,1.6,3.2,3.9,3.2,6.9C119.7,247.4,118.7,249.5,116.5,251 M36.1,207.1l9.7,28.9H26.5L36.1,207.1z
		 M55.5,264.9h16.9l-28.9-77.2H28.8L0,264.9h16.9l5.3-15.9h27.9L55.5,264.9z"/>
	<path clip-path="url(#SVGID_2_)" d="M392.9,156.4c-1.3,1-3.2,1.5-5.7,1.5c-2.6,0-4.7-0.6-6.2-1.9c-1.6-1.3-2.4-3.1-2.6-5.4h-9.3
		c0,2.7,0.8,5.1,2.3,7.4c1.5,2.3,3.6,4.1,6.4,5.4c2.7,1.3,5.8,2,9.3,2c5.1,0,9.3-1.2,12.5-3.7c3.2-2.5,4.7-5.7,4.7-9.7
		c0-2.4-0.5-4.4-1.6-6.1c-1-1.7-2.6-3.1-4.8-4.3c-2.1-1.2-5.1-2.2-8.8-3.1c-3.7-0.9-6.2-1.7-7.5-2.6c-1.2-0.8-1.8-2-1.8-3.6
		c0-1.7,0.7-3.1,2-4.1c1.3-1,3-1.5,5.1-1.5c2.3,0,4.1,0.6,5.4,1.9c1.4,1.3,2,2.9,2,4.8h9.5c0-4.2-1.6-7.6-4.7-10.2
		c-3.1-2.6-7.2-3.9-12.3-3.9c-4.8,0-8.7,1.3-11.8,3.9c-3.1,2.6-4.6,5.8-4.6,9.6c0,4.6,2.4,8.1,7.1,10.5c2.2,1.1,4.9,2,8.1,2.7
		c3.2,0.7,5.6,1.5,7,2.5c1.4,0.9,2.1,2.3,2.1,4.1C394.9,154.1,394.2,155.4,392.9,156.4 M352,112.3c0.9,1,2.3,1.5,4,1.5
		c1.7,0,3.1-0.5,4-1.5c0.9-1,1.4-2.3,1.4-3.8c0-1.5-0.5-2.8-1.4-3.9c-0.9-1-2.3-1.5-4-1.5c-1.7,0-3.1,0.5-4,1.5
		c-0.9,1-1.4,2.3-1.4,3.9C350.6,110,351,111.3,352,112.3 M360.7,120.1h-9.5v44.4h9.5V120.1z M311.1,129.8c1.5,1.7,2.3,4.2,2.6,7.6
		v0.7h-18.2c0.4-3.4,1.5-6.1,3.1-8c1.6-1.9,3.7-2.9,6.3-2.9C307.6,127.3,309.7,128.1,311.1,129.8 M315.6,163.2
		c2.8-1.5,5.1-3.5,6.8-6.2l-5.1-5.1c-2.8,3.7-6.3,5.5-10.7,5.5c-3.1,0-5.7-1.1-7.8-3.2c-2.1-2.1-3.2-5-3.5-8.7h27.8v-4
		c0-7.1-1.6-12.5-4.7-16.4c-3.2-3.9-7.6-5.8-13.4-5.8c-3.6,0-6.9,1-9.9,2.9c-3,1.9-5.3,4.7-6.9,8.2c-1.6,3.5-2.5,7.5-2.5,11.9v1.2
		c0,6.6,1.9,11.9,5.6,15.9c3.8,4,8.7,6,14.7,6C309.6,165.4,312.8,164.6,315.6,163.2 M217.4,120.1v44.4h9.5v-32.2
		c1.6-3.3,4.3-4.9,8.1-4.9c5,0,7.5,2.6,7.7,7.8v29.2h9.5l0-30.5c0.5-2,1.5-3.6,2.9-4.8c1.4-1.2,3.1-1.8,5.3-1.8c2.7,0,4.7,0.7,5.9,2
		c1.2,1.3,1.8,3.4,1.8,6.2v28.9h9.5v-29.2c-0.1-5.3-1.2-9.3-3.5-12c-2.3-2.7-5.8-4.1-10.5-4.1c-5.6,0-9.9,2.3-13,6.8
		c-2.1-4.5-6-6.8-11.7-6.8c-5.2,0-9.3,1.8-12.3,5.5l-0.3-4.6H217.4z M183.9,155.6c-1.2-1.1-1.8-2.7-1.8-4.6c0-2.4,0.9-4.2,2.7-5.5
		c1.8-1.3,4.4-1.9,8-1.9h5.1v8.4c-0.8,1.6-2.1,2.9-3.8,3.9c-1.7,1-3.4,1.4-5.3,1.4C186.8,157.3,185.1,156.8,183.9,155.6 M209,164.5
		v-0.7c-1.1-2.4-1.6-5.6-1.6-9.6v-20c-0.1-4.7-1.6-8.4-4.6-11c-3-2.6-6.9-3.9-11.9-3.9c-3.3,0-6.2,0.6-8.9,1.8
		c-2.7,1.2-4.8,2.9-6.3,5c-1.5,2.1-2.3,4.4-2.3,6.8h9.5c0-1.8,0.7-3.2,2.1-4.3c1.4-1.1,3.2-1.7,5.3-1.7c2.5,0,4.4,0.7,5.6,2.1
		c1.2,1.4,1.8,3.2,1.8,5.5v2.9H192c-6.3,0-11.1,1.3-14.4,3.8c-3.4,2.5-5,6.2-5,10.9c0,3.8,1.3,6.9,4,9.4c2.7,2.5,6.2,3.8,10.4,3.8
		c4.4,0,8.1-1.7,11.1-5c0.3,1.9,0.7,3.3,1.1,4.1H209z M129,120.1v44.4h9.5v-31.6c1.9-3.6,4.8-5.5,8.6-5.5c2.6,0,4.5,0.7,5.7,2
		c1.2,1.4,1.7,3.4,1.7,6.3v28.8h9.5v-29.4c-0.2-10.6-4.7-15.9-13.5-15.9c-5.1,0-9.2,2-12.4,6l-0.3-5.1H129z M75.9,120.1H65.6
		l14.9,44.2l-1.4,3.8c-0.7,2.2-1.7,3.7-2.9,4.6c-1.2,0.9-3,1.4-5.4,1.4L69,174v7.8c1.7,0.5,3.2,0.7,4.6,0.7
		c6.2,0,10.6-3.7,13.2-11.2l16.9-51.2H93.5l-8.6,30.1L75.9,120.1z M0,120.1v44.4h9.5v-32.2c1.6-3.3,4.3-4.9,8.1-4.9
		c5,0,7.5,2.6,7.7,7.8v29.2h9.5l0-30.5c0.6-2,1.5-3.6,2.9-4.8c1.4-1.2,3.1-1.8,5.3-1.8c2.7,0,4.7,0.7,5.9,2c1.2,1.3,1.8,3.4,1.8,6.2
		v28.9h9.5v-29.2c-0.1-5.3-1.2-9.3-3.5-12c-2.3-2.7-5.8-4.1-10.5-4.1c-5.6,0-9.9,2.3-13,6.8c-2.1-4.5-6-6.8-11.7-6.8
		c-5.2,0-9.3,1.8-12.3,5.5L9,120.1H0z"/>
	<path clip-path="url(#SVGID_2_)" d="M412,108.4c2.4-4.9,3.6-9.8,3.7-14.7l0.1-13.1h-16.1v14.7c-0.1,5.3-1.6,10.6-4.5,15.9l-2.4,4.3
		l10,5.2C406.5,117.4,409.6,113.3,412,108.4 M372.6,51.5c0,9.9-1.8,17.5-5.4,22.6c-3.6,5.2-8.7,7.8-15.3,7.8c-6.8,0-12-2.7-15.6-8.1
		c-3.6-5.4-5.4-12.9-5.4-22.7v-4.7c0-9.9,1.9-17.4,5.5-22.6c3.6-5.1,8.7-7.7,15.4-7.7c6.7,0,11.8,2.6,15.4,7.8
		c3.6,5.2,5.4,12.8,5.4,22.8V51.5z M392.7,46.9c0-9.3-1.7-17.6-5.1-24.7c-3.4-7.1-8.2-12.6-14.4-16.4C366.9,1.9,359.8,0,351.8,0
		c-8,0-15.1,1.9-21.3,5.7c-6.2,3.8-11,9.3-14.4,16.4c-3.4,7.1-5.1,15.4-5.1,24.8v4.7c0,9.2,1.8,17.3,5.2,24.3
		c3.4,7.1,8.3,12.5,14.5,16.3c6.2,3.8,13.3,5.7,21.3,5.7c8,0,15.2-1.9,21.4-5.8c6.2-3.8,11-9.3,14.3-16.4c3.3-7.1,5-15.3,5-24.7
		V46.9z M264.8,1.3H245v95.4h61.8V80.9h-42V1.3z M191.7,1.3h-19.8v95.4h61.8V80.9h-42V1.3z M153.7,40h-38V17.2h44.4V1.3H96v95.4
		h64.3V80.9h-44.6V55.2h38V40z M78.7,1.3H58.9V40H20.4V1.3H0.6v95.4h19.8V55.8h38.6v40.9h19.8V1.3z"/>
</g>
</svg>
